<svg id="ICO_arrow_left" xmlns="http://www.w3.org/2000/svg" width="19.234" height="19.774" viewBox="0 0 19.234 19.774">
  <path id="Icon_awesome-chevron-down" data-name="Icon awesome-chevron-down" d="M9.516,20.365l-8.8-8.8a1.087,1.087,0,0,1,0-1.537L1.742,9A1.087,1.087,0,0,1,3.277,9l7.007,6.974L17.292,9a1.087,1.087,0,0,1,1.535,0l1.026,1.026a1.087,1.087,0,0,1,0,1.537l-8.8,8.8A1.087,1.087,0,0,1,9.516,20.365Z" transform="translate(20.683 -0.398) rotate(90)" fill="#3c4242"/>
  <path id="Icon_awesome-chevron-down-2" data-name="Icon awesome-chevron-down" d="M9.516,20.365l-8.8-8.8a1.087,1.087,0,0,1,0-1.537L1.742,9A1.087,1.087,0,0,1,3.277,9c7.005,7.052,4.41,4.461,8.8,8.806a1.087,1.087,0,0,1,0,1.537l-1.022,1.022A1.087,1.087,0,0,1,9.516,20.365Z" transform="translate(25.655 15.747) rotate(135)" fill="#3c4242"/>
</svg>
