<svg id="_00_AZLogo" data-name="00_AZLogo" xmlns="http://www.w3.org/2000/svg" width="30.615" height="36.497" viewBox="0 0 30.615 36.497">
  <path id="Path_20" data-name="Path 20" d="M272.7,41.18c-.327.2-.654.408-.977.62-3.77-2.061-11.873-6.033-12.577-6.392-.751-.384-2.063-.9-1.9-2.129.232-1.724,3.27-5.495,4.561-7.043,6.99-8.409,10.12-11,12.2-10.733,2.214.285,3.443,2.535,3.59,13.076-1.233-.375-2.6-.762-4.051-1.119-.119-1.531-.408-3.842-.52-4.641-.123-.9-.3-1.242-.671-1.291-.418-.053-1.437.91-2.361,1.841-.422.422-1.61,1.6-2.921,2.9a2.448,2.448,0,0,0-2.232.679,1.935,1.935,0,0,0-.2,1.731c-.709.7-1.318,1.3-1.7,1.676-1.458,1.43-3,2.612-3.078,3.193-.064.473.675.964,1.724,1.58C264.149,36.638,270.464,40,272.7,41.18Zm9.808-10.522a76.612,76.612,0,0,0-14.992-3.911c-2.211-.285-3.1.487-2.189,2.562a33.465,33.465,0,0,0,5.665,8.048c2.438,2.572,5.084,3.263,5.924-.7.032-.141.059-.283.087-.422a27.388,27.388,0,0,0,.432-2.872c-1.082-.483-2.294-1-3.507-1.5.067.91.175,2.479.232,3.686.006.156.014.3.018.449.073,1.957-.6,1.95-1.736,1.151-1.318-.927-5.352-6.17-5.815-8.486-.021-.152.052-.158.133-.133l.1.039.011,0h0c.91.353,3.943,1.53,7.024,2.806,1.23.51,2.464,1.034,3.574,1.529,1.092.485,2.066.939,2.794,1.322,1.331.7,1.848,1.178,1.289,1.738-2.773,2.769-12.45,6.706-15.792,11.574,0,0-.014.017-.035.048a1.542,1.542,0,0,0-.109.173c-.011.019-.018.039-.029.056a4.194,4.194,0,0,0-.485,1.446c-.14,1.064.422,2.035,1.975,2.447a7.228,7.228,0,0,0,1.318.245c.084.007.179.014.274.017,2.983.143,10.729-1.527,13.086-2.558,2.435-1.064,1.708-2.122,1-2.672-.527-.415-3.24-1.9-4.554-2.617-.351.221-.628.394-.976.615a37.495,37.495,0,0,1,3.647,2.406c.2.156.091.338-.207.359-.081.007-.148.011-.24.017-2.125.145-6.152.423-8.042.522-.278.017-.59.031-.763.038a12.727,12.727,0,0,1,1.254-1c4.042-2.8,10.782-6.727,12.766-8.417C287.1,37.42,291.093,33.608,282.506,30.659Z" transform="translate(-257.233 -15.484)" fill="#f0ab00"/>
</svg>
