<svg xmlns="http://www.w3.org/2000/svg" width="160" height="38.798" viewBox="0 0 160 38.798">
  <g id="_00_GRA_AZLogo" data-name="00_GRA_AZLogo" transform="translate(0 0)">
    <path id="Path_19" data-name="Path 19" d="M35.582,62.91l2.635-7.152,2.51,7.152Zm7.7,7.206H45.7L39.433,52.9H37.045L30.489,70.116h2.436l1.926-5.278H41.41ZM54.743,66.47c0,1.4-1.139,2.149-3.083,2.149-1.57,0-2.624-.441-3.208-1.455l-2.323.408c.9,1.849,2.786,2.734,5.435,2.734,3.6,0,5.476-1.991,5.476-4.112,0-2.726-2.513-3.465-5.406-4.049-1.4-.279-3.036-.8-3.036-2.035,0-.882.86-1.9,2.583-1.9a3.282,3.282,0,0,1,2.973,1.672l2.039-.849a5.086,5.086,0,0,0-4.762-2.51c-3.024,0-5.031,1.492-5.031,3.862,0,2.7,2.311,3.226,4.549,3.711C52.875,64.511,54.743,64.985,54.743,66.47ZM61.861,52.9l-2.264.945v3.178H57.52v1.83H59.6V67.26c-.029,1.709-.029,2.944,2.513,2.944a14.765,14.765,0,0,0,2.127-.221V68.171a5.612,5.612,0,0,1-1.437.3c-.94,0-.94-.661-.94-2.2V58.855h2.377v-1.83H61.861Zm4.361,4.123V70.116h2.194V64.1a6.649,6.649,0,0,1,.555-3.4c.712-1.16,1.771-1.6,3.924-1.617V56.812a4.74,4.74,0,0,0-4.479,2.554V57.025ZM85.89,52.906v2.121h9.782l-9.79,12.851v2.238H98.527V68.049H88.539l9.742-13V52.906Zm26.4,4.119V70.116h2.2V62.692a3.6,3.6,0,0,1,.97-2.928,3.382,3.382,0,0,1,2.5-.992,2.769,2.769,0,0,1,2.8,1.793,7.162,7.162,0,0,1,.141,2.153v7.4h2.19V62.358a9.547,9.547,0,0,0-.225-2.679,4.307,4.307,0,0,0-4.3-2.992,4.6,4.6,0,0,0-4.079,2.331V57.025ZM146.4,66.947a3.1,3.1,0,0,1-3.021,1.709c-1.477,0-3.956-.93-3.956-5.244,0-1.162.209-5.274,3.819-5.274a3.085,3.085,0,0,1,3.05,1.849l2.059-.86a5.831,5.831,0,0,0-5.189-2.6c-4.167,0-6.181,3.352-6.181,7.052,0,3.2,1.746,6.765,6.371,6.765a5.538,5.538,0,0,0,4.988-2.583Zm-44.719-4.736h6.938c-.194-3.422-2.167-4-3.483-4C103.261,58.209,101.931,59.587,101.684,62.211Zm8.745,5.4a5.451,5.451,0,0,1-5.041,2.734c-3.866,0-6.09-2.624-6.09-7.026,0-4.913,3.245-6.794,6.005-6.794a5.437,5.437,0,0,1,5.475,4.612,11.924,11.924,0,0,1,.246,2.653h-9.4c-.059,2.186.86,4.952,3.951,4.9A3.108,3.108,0,0,0,108.3,67.2Zm16.22-5.4h6.938c-.194-3.422-2.167-4-3.483-4C128.226,58.209,126.9,59.587,126.649,62.211Zm8.747,5.4a5.455,5.455,0,0,1-5.045,2.734c-3.864,0-6.082-2.624-6.082-7.026,0-4.913,3.241-6.794,6-6.794a5.434,5.434,0,0,1,5.475,4.612,11.9,11.9,0,0,1,.247,2.653h-9.4c-.055,2.186.863,4.952,3.953,4.9a3.108,3.108,0,0,0,2.716-1.492Zm24.952,2.507-2.287.011a14.837,14.837,0,0,1-.26-1.929,5.632,5.632,0,0,1-4.381,2.112c-2.542,0-4.428-1.51-4.428-3.719a3.55,3.55,0,0,1,.581-1.965c.75-1.107,2.135-1.991,6.029-2.3l2.073-.165v-.331c0-1.356,0-3.623-2.921-3.623-1.833,0-2.462.889-2.672,1.694l-2.021-.845a1.873,1.873,0,0,1,.106-.213,4.767,4.767,0,0,1,4.506-2.322,6.522,6.522,0,0,1,3.806,1.106,4.43,4.43,0,0,1,1.42,3.281l.091,6.71A10.179,10.179,0,0,0,160.348,70.116Zm-3-3.61c.331-.72.357-1.021.357-2.932-.853.137-2.011.3-3.425.606-2.429.529-2.844,1.44-2.844,2.355,0,1.051.83,1.937,2.458,1.937A3.559,3.559,0,0,0,157.344,66.506Zm-73.009,3.61-2.285.011a14.835,14.835,0,0,1-.261-1.929,5.644,5.644,0,0,1-4.38,2.112c-2.543,0-4.431-1.51-4.431-3.719a3.554,3.554,0,0,1,.58-1.965c.75-1.107,2.139-1.991,6.034-2.3l2.069-.165v-.331c0-1.356,0-3.623-2.918-3.623-1.837,0-2.458.889-2.675,1.694l-2.021-.845c.033-.07.07-.143.106-.213a4.772,4.772,0,0,1,4.509-2.322,6.519,6.519,0,0,1,3.8,1.106,4.448,4.448,0,0,1,1.426,3.281l.084,6.71A10.443,10.443,0,0,0,84.335,70.116Zm-3.006-3.61c.331-.72.361-1.021.361-2.932-.856.137-2.01.3-3.425.606-2.433.529-2.848,1.44-2.848,2.355,0,1.051.831,1.937,2.462,1.937A3.554,3.554,0,0,0,81.329,66.506Z" transform="translate(-30.489 -31.781)" fill="#8b0051"/>
    <path id="Path_20" data-name="Path 20" d="M273.406,42.8c-.341.218-.684.434-1.022.659-3.943-2.191-12.417-6.413-13.152-6.8-.786-.408-2.157-.958-1.983-2.263.242-1.832,3.42-5.841,4.77-7.487,7.31-8.939,10.583-11.7,12.755-11.41,2.315.3,3.6,2.7,3.755,13.9-1.29-.4-2.718-.811-4.237-1.19-.125-1.627-.427-4.084-.544-4.933-.129-.957-.316-1.321-.7-1.373-.437-.056-1.5.967-2.469,1.957-.441.449-1.684,1.706-3.054,3.087a2.535,2.535,0,0,0-2.334.722,2.086,2.086,0,0,0-.209,1.84c-.742.739-1.378,1.379-1.781,1.781-1.525,1.521-3.135,2.777-3.219,3.395-.067.5.706,1.025,1.8,1.68C264.465,37.971,271.069,41.543,273.406,42.8Zm10.257-11.185a79.084,79.084,0,0,0-15.677-4.158c-2.312-.3-3.244.518-2.289,2.723a35.592,35.592,0,0,0,5.924,8.555c2.549,2.734,5.316,3.469,6.195-.743.033-.15.062-.3.091-.448a29.574,29.574,0,0,0,.452-3.053c-1.132-.514-2.4-1.062-3.667-1.6.071.967.183,2.635.243,3.918.007.165.015.323.019.478.077,2.08-.632,2.073-1.816,1.224-1.378-.985-5.6-6.559-6.081-9.02-.021-.162.055-.168.139-.141l.1.042.011,0h0c.952.375,4.123,1.626,7.346,2.983,1.286.542,2.577,1.1,3.737,1.625,1.142.516,2.161,1,2.922,1.405,1.392.745,1.932,1.252,1.348,1.847-2.9,2.943-13.019,7.129-16.514,12.3,0,0-.014.018-.037.051A1.641,1.641,0,0,0,266,49.8c-.011.02-.019.042-.03.059a4.509,4.509,0,0,0-.507,1.537c-.147,1.131.441,2.164,2.065,2.6a7.449,7.449,0,0,0,1.378.26c.087.007.187.015.286.018,3.12.152,11.219-1.623,13.684-2.719,2.547-1.131,1.786-2.256,1.048-2.84-.551-.441-3.388-2.021-4.763-2.782-.367.235-.657.419-1.021.654a39.171,39.171,0,0,1,3.814,2.558c.209.165.095.36-.217.382-.085.007-.155.011-.251.018-2.222.155-6.434.449-8.41.555-.291.018-.617.033-.8.04a13.345,13.345,0,0,1,1.312-1.066c4.227-2.972,11.275-7.151,13.35-8.948C288.468,38.8,292.642,34.75,283.663,31.615Z" transform="translate(-129.249 -15.484)" fill="#f0ab00"/>
  </g>
</svg>
