<svg xmlns="http://www.w3.org/2000/svg" width="21" height="20.643" viewBox="0 0 21 20.643">
  <g id="Group_1762" data-name="Group 1762" transform="translate(8339.885 -4522.978)">
    <path id="Path_1853" data-name="Path 1853" d="M0,3.674C0,1.368,2.394,0,5.344,0s5.344,1.368,5.344,3.674S8.295,7.348,5.344,7.348,0,5.98,0,3.674Zm1.336,0c0,1.368,1.7,2.338,4.008,2.338s4.008-.97,4.008-2.338-1.7-2.338-4.008-2.338S1.336,2.306,1.336,3.674Z" transform="translate(-8339.885 4532.697) rotate(-23)" fill="#3c4242"/>
    <path id="Path_1854" data-name="Path 1854" d="M.136,1.072c.947,1.247,4.141,1.247,5.075,0a.668.668,0,0,0-1.07-.8A2.875,2.875,0,0,1,1.2.264a.668.668,0,1,0-1.064.808Z" transform="translate(-8336.311 4534.423) rotate(-23)" fill="#3c4242"/>
    <path id="Path_1855" data-name="Path 1855" d="M0,3.674C0,1.368,2.394,0,5.344,0s5.344,1.368,5.344,3.674S8.295,7.348,5.344,7.348,0,5.98,0,3.674Zm1.336,0c0,1.368,1.7,2.338,4.008,2.338s4.008-.97,4.008-2.338-1.7-2.338-4.008-2.338S1.336,2.306,1.336,3.674Z" transform="translate(-8328.849 4542.853) rotate(-84)" fill="#3c4242"/>
    <path id="Path_1856" data-name="Path 1856" d="M.136,1.072c.947,1.247,4.141,1.247,5.075,0a.668.668,0,0,0-1.07-.8A2.875,2.875,0,0,1,1.2.264a.668.668,0,1,0-1.064.808Z" transform="translate(-8325.523 4540.51) rotate(-84)" fill="#3c4242"/>
    <path id="Path_1859" data-name="Path 1859" d="M0,3.674C0,1.368,2.394,0,5.344,0s5.344,1.368,5.344,3.674S8.295,7.348,5.344,7.348,0,5.98,0,3.674Zm1.336,0c0,1.368,1.7,2.338,4.008,2.338s4.008-.97,4.008-2.338-1.7-2.338-4.008-2.338S1.336,2.306,1.336,3.674Z" transform="translate(-8329.493 4522.978) rotate(7)" fill="#3c4242"/>
    <path id="Path_1860" data-name="Path 1860" d="M.136,1.072c.947,1.247,4.141,1.247,5.075,0a.668.668,0,0,0-1.07-.8A2.875,2.875,0,0,1,1.2.264a.668.668,0,1,0-1.064.808Z" transform="translate(-8327.207 4526.242) rotate(7)" fill="#3c4242"/>
  </g>
</svg>

