<svg xmlns="http://www.w3.org/2000/svg" width="19.496" height="22.668"><g data-name="00_IconIntro" fill="#204194"><path data-name="Path 290" d="M18.778 3.1L16.392.716A2.453 2.453 0 0014.65 0H6.657A2.454 2.454 0 004.2 2.458V4.2H2.434A2.444 2.444 0 000 6.633v13.6a2.444 2.444 0 002.434 2.434h10.427a2.444 2.444 0 002.434-2.434v-1.765h1.742a2.454 2.454 0 002.458-2.458V4.844a2.271 2.271 0 00-.717-1.744zm-5.106 17.134a.8.8 0 01-.811.811h-10.4a.8.8 0 01-.811-.811V6.633a.8.8 0 01.811-.811h1.766v10.165a2.454 2.454 0 002.458 2.458H13.7v1.79zm4.2-4.223a.8.8 0 01-.811.811h-10.4a.8.8 0 01-.811-.811V2.458a.8.8 0 01.811-.811h8.017a.833.833 0 01.573.239l2.386 2.386a.833.833 0 01.239.573z"/><path data-name="Path 291" d="M14.984 5.798H11.19a.811.811 0 000 1.623h3.818a.8.8 0 00.811-.811.841.841 0 00-.835-.812z"/><path data-name="Path 292" d="M14.984 9.353H11.19a.811.811 0 100 1.623h3.818a.8.8 0 00.811-.811.825.825 0 00-.835-.812z"/><path data-name="Path 293" d="M14.984 12.885H11.19a.811.811 0 100 1.623h3.818a.8.8 0 00.811-.811.825.825 0 00-.835-.812z"/><circle data-name="Ellipse 1" cx=".811" cy=".811" r=".811" transform="translate(7.922 5.822)"/><circle data-name="Ellipse 2" cx=".811" cy=".811" r=".811" transform="translate(7.922 9.354)"/><circle data-name="Ellipse 3" cx=".811" cy=".811" r=".811" transform="translate(7.922 12.885)"/></g></svg>
