<svg id="ICO_Conclusions" xmlns="http://www.w3.org/2000/svg" width="21.5" height="21.5" viewBox="0 0 21.5 21.5">
  <path id="Icon_material-chat_bubble_outline" data-name="Icon material-chat_bubble_outline" d="M22.35,3H5.15A2.156,2.156,0,0,0,3,5.15V24.5l4.3-4.3H22.35a2.156,2.156,0,0,0,2.15-2.15V5.15A2.156,2.156,0,0,0,22.35,3Zm.537,15.588H6.225L4.613,20.2V4.613H22.888Z" transform="translate(-3 -3)" fill="#3c4242"/>
  <path id="Icon_material-speaker-notes" data-name="Icon material-speaker-notes" d="M11.859,18.009H9.784V15.934h2.075Zm0-5.15H9.784V10.784h2.075Zm7.262,5.15H13.934V15.934h5.187Zm3.112-5.15h-8.3V10.784h8.3Z" transform="translate(-5.796 -6.007)" fill="#3c4242"/>
</svg>
