<svg id="ICO_Demo" xmlns="http://www.w3.org/2000/svg" width="20" height="20" viewBox="0 0 20 20">
  <path id="Icon_metro-chart-bars2" data-name="Icon metro-chart-bars2" d="M9.5,11.5H5.213a.716.716,0,0,0-.714.714V25.07a.716.716,0,0,0,.714.714H9.5a.716.716,0,0,0,.714-.714V12.213A.716.716,0,0,0,9.5,11.5Zm0,12.857H5.213V18.641H9.5v5.714ZM16.642,8.641H12.356a.716.716,0,0,0-.714.714V25.07a.716.716,0,0,0,.714.714h4.286a.716.716,0,0,0,.714-.714V9.356a.716.716,0,0,0-.714-.714Zm0,15.714H12.356V17.213h4.286v7.143ZM23.784,5.784H19.5a.716.716,0,0,0-.714.714V25.07a.716.716,0,0,0,.714.714h4.286a.716.716,0,0,0,.714-.714V6.5a.716.716,0,0,0-.714-.714Zm0,18.571H19.5V15.784h4.286v8.571Z" transform="translate(-4.499 -5.784)" fill="#204194"/>
</svg>
