<svg id="ICO_Intro" xmlns="http://www.w3.org/2000/svg" width="17.201" height="20" viewBox="0 0 17.201 20">
  <path id="Path_290" data-name="Path 290" d="M25.668,5.237,23.563,3.132A2.165,2.165,0,0,0,22.026,2.5H14.974a2.165,2.165,0,0,0-2.168,2.168V6.205H11.247A2.156,2.156,0,0,0,9.1,8.353v12A2.156,2.156,0,0,0,11.247,22.5h9.2a2.156,2.156,0,0,0,2.147-2.147V18.795h1.537A2.165,2.165,0,0,0,26.3,16.626V6.774A2,2,0,0,0,25.668,5.237ZM21.163,20.353a.71.71,0,0,1-.716.716H11.268a.71.71,0,0,1-.716-.716v-12a.71.71,0,0,1,.716-.716h1.558v8.968a2.165,2.165,0,0,0,2.168,2.168h6.189v1.579Zm3.705-3.726a.71.71,0,0,1-.716.716H14.974a.71.71,0,0,1-.716-.716V4.668a.71.71,0,0,1,.716-.716h7.074a.735.735,0,0,1,.505.211l2.105,2.105a.735.735,0,0,1,.211.505Z" transform="translate(-9.1 -2.5)" fill="#3c4242"/>
  <path id="Path_291" data-name="Path 291" d="M56.663,26.8H53.316a.716.716,0,1,0,0,1.432h3.368a.71.71,0,0,0,.716-.716A.742.742,0,0,0,56.663,26.8Z" transform="translate(-43.442 -21.684)" fill="#3c4242"/>
  <path id="Path_292" data-name="Path 292" d="M56.663,41.7H53.316a.716.716,0,1,0,0,1.432h3.368a.71.71,0,0,0,.716-.716A.728.728,0,0,0,56.663,41.7Z" transform="translate(-43.442 -33.447)" fill="#3c4242"/>
  <path id="Path_293" data-name="Path 293" d="M56.663,56.5H53.316a.716.716,0,0,0,0,1.432h3.368a.71.71,0,0,0,.716-.716A.728.728,0,0,0,56.663,56.5Z" transform="translate(-43.442 -45.132)" fill="#3c4242"/>
  <circle id="Ellipse_1" data-name="Ellipse 1" cx="0.716" cy="0.716" r="0.716" transform="translate(6.99 5.137)" fill="#3c4242"/>
  <circle id="Ellipse_2" data-name="Ellipse 2" cx="0.716" cy="0.716" r="0.716" transform="translate(6.99 8.253)" fill="#3c4242"/>
  <circle id="Ellipse_3" data-name="Ellipse 3" cx="0.716" cy="0.716" r="0.716" transform="translate(6.99 11.368)" fill="#3c4242"/>
</svg>