<svg xmlns="http://www.w3.org/2000/svg" width="14.412" height="23.685" viewBox="0 0 14.412 23.685">
  <g id="Group_1975" data-name="Group 1975" transform="translate(770 9828.933)">
    <g id="Layer_2" data-name="Layer 2" transform="translate(-770 -9828.933)">
      <g id="Layer_1" data-name="Layer 1" transform="translate(0 0)">
        <g id="Group_1978" data-name="Group 1978">
          <g id="Path_1869" data-name="Path 1869">
            <path id="Path_1878" data-name="Path 1878" d="M1.26,22.929H.39l-.22-.17a.58.58,0,0,1-.17-.43V10.59A6.69,6.69,0,0,1,3.36,4.66a6.55,6.55,0,0,1,3.54-1H8.75a1.64,1.64,0,0,0,1.64-1.5,2.69,2.69,0,0,0,0-.49V.41l.18-.25A.59.59,0,0,1,11,0h.58a.58.58,0,0,1,.62.61c0,.23,0,.45,0,.67v1A3.48,3.48,0,0,1,9.48,5.46a3.81,3.81,0,0,1-.75.07H6.69A4.91,4.91,0,0,0,2.45,8.15a4.66,4.66,0,0,0-.6,2.23V22.549l-.17.22A.6.6,0,0,1,1.26,22.929Z" transform="translate(0.001 0.001)" fill="#204194"/>
          </g>
          <g id="Path_1870" data-name="Path 1870" transform="translate(4.784 10.658)">
            <path id="Path_1879" data-name="Path 1879" d="M6,23.679a.63.63,0,0,1-.26-.05,4.4,4.4,0,0,0-.51-.18.61.61,0,0,1-.39-.32.58.58,0,0,1,0-.5,8.06,8.06,0,0,0,.38-1.42,8.4,8.4,0,0,0,.11-1.32V17.76a.39.39,0,0,0,0-.15,4.67,4.67,0,0,1,.27-3.78,2.15,2.15,0,0,0,.3-1,1.67,1.67,0,0,0-.22-.9.6.6,0,0,1-.08-.48.58.58,0,0,1,.31-.38,4.73,4.73,0,0,0,.44-.28.62.62,0,0,1,.51-.12.63.63,0,0,1,.4.33,3.57,3.57,0,0,1,0,3.51,3.12,3.12,0,0,0-.38,1.15,2.87,2.87,0,0,0,.21,1.47,2.83,2.83,0,0,0,1.09,1.3,2.89,2.89,0,0,0,4.4-1.9,2.15,2.15,0,0,0,0-.43v-.21l.17-.24a.65.65,0,0,1,.46-.16h.53a.6.6,0,0,1,.49.16.68.68,0,0,1,.18.51,4.47,4.47,0,0,1-.69,2.27A4.57,4.57,0,0,1,9.4,20.69,4.43,4.43,0,0,1,7.17,20v.38a9.68,9.68,0,0,1-.6,2.92l-.08.2-.25.16A.6.6,0,0,1,6,23.679ZM13.62,16.14ZM6.54,11.45Z" transform="translate(-4.783 -10.657)" fill="#204194"/>
          </g>
        </g>
      </g>
    </g>
    <circle id="Ellipse_323" data-name="Ellipse 323" cx="1" cy="1" r="1" transform="translate(-761 -9813.933)" fill="#204194"/>
  </g>
</svg>

