<svg xmlns="http://www.w3.org/2000/svg" width="22.849" height="22.849"><path data-name="Icon metro-warning" d="M11.429 2.072l9.57 19.081H1.849l9.58-19.081zm0-2.07a1.651 1.651 0 00-1.359 1L.313 20.434c-.747 1.328-.112 2.415 1.413 2.415h19.4c1.524 0 2.16-1.087 1.412-2.415L12.783.996a1.651 1.651 0 00-1.358-1zm1.428 18.565a1.428 1.428 0 11-1.428-1.43 1.428 1.428 0 011.423 1.428zm-1.428-2.858a1.428 1.428 0 01-1.428-1.428V9.996a1.428 1.428 0 012.856 0v4.284a1.428 1.428 0 01-1.428 1.429z" fill="#204194"/></svg>
