<svg xmlns="http://www.w3.org/2000/svg" width="44" height="37" viewBox="0 0 44 37">
  <g id="Group_1929" data-name="Group 1929" transform="translate(-2 -9.1)">
    <path id="Path_1219" data-name="Path 1219" d="M7.044,47.623h6.467a1.128,1.128,0,0,0,.943-.449,1.315,1.315,0,0,0,.314-.988l-.18-1.347a3.478,3.478,0,0,0-1.976-2.65,3.2,3.2,0,1,0-5.524-2.2,3.018,3.018,0,0,0,.853,2.156,3.383,3.383,0,0,0-1.976,2.65l-.18,1.347a1.158,1.158,0,0,0,.314.988A1.172,1.172,0,0,0,7.044,47.623Zm3.233-9.431a1.841,1.841,0,1,1,0,3.682,1.88,1.88,0,0,1-1.841-1.841A1.821,1.821,0,0,1,10.277,38.192ZM7.313,45.063a2.132,2.132,0,0,1,2.111-1.841h1.751a2.162,2.162,0,0,1,2.111,1.841l.269,1.257-6.422.045Z" transform="translate(-1.804 -15.62)" fill="#3c4242" stroke="#3c4242" stroke-width="1"/>
    <path id="Path_1220" data-name="Path 1220" d="M13.817,65.2H3.174a.691.691,0,0,0-.674.674v9.476a.691.691,0,0,0,.674.674H13.817a.691.691,0,0,0,.674-.674V65.829A.683.683,0,0,0,13.817,65.2Zm-.674,9.476H3.8V66.5h9.3v8.173Z" transform="translate(0 -30.468)" fill="#3c4242" stroke="#3c4242" stroke-width="1"/>
    <path id="Path_1221" data-name="Path 1221" d="M41.244,34.523h6.467a1.128,1.128,0,0,0,.943-.449,1.315,1.315,0,0,0,.314-.988l-.18-1.347a3.478,3.478,0,0,0-1.976-2.65,3.2,3.2,0,1,0-5.524-2.2,3.018,3.018,0,0,0,.853,2.156,3.383,3.383,0,0,0-1.976,2.65l-.18,1.347a1.158,1.158,0,0,0,.314.988A1.172,1.172,0,0,0,41.244,34.523Zm3.233-9.431a1.841,1.841,0,0,1,0,3.682,1.88,1.88,0,0,1-1.841-1.841A1.821,1.821,0,0,1,44.477,25.092Zm-2.964,6.871a2.132,2.132,0,0,1,2.111-1.841h1.751a2.162,2.162,0,0,1,2.111,1.841l.269,1.257-6.422.045Z" transform="translate(-20.477 -8.31)" fill="#3c4242" stroke="#3c4242" stroke-width="1"/>
    <path id="Path_1222" data-name="Path 1222" d="M47.972,52.1h-10.6a.691.691,0,0,0-.674.674v15.4a.691.691,0,0,0,.674.674H48.017a.691.691,0,0,0,.674-.674V52.729A.694.694,0,0,0,47.972,52.1Zm-.629,15.359H38V53.4h9.3V67.459Z" transform="translate(-18.673 -23.251)" fill="#3c4242" stroke="#3c4242" stroke-width="1"/>
    <path id="Path_1223" data-name="Path 1223" d="M75.444,21.423h6.467a1.128,1.128,0,0,0,.943-.449,1.315,1.315,0,0,0,.314-.988l-.18-1.347a3.478,3.478,0,0,0-1.976-2.65,3.2,3.2,0,1,0-5.524-2.2,3.018,3.018,0,0,0,.853,2.156,3.383,3.383,0,0,0-1.976,2.65l-.18,1.347a1.158,1.158,0,0,0,.314.988A1.172,1.172,0,0,0,75.444,21.423Zm3.233-9.431a1.841,1.841,0,1,1-1.841,1.841A1.821,1.821,0,0,1,78.677,11.992Zm-2.964,6.871a2.132,2.132,0,0,1,2.111-1.841h1.751a2.162,2.162,0,0,1,2.111,1.841l.269,1.257-6.422.09Z" transform="translate(-39.15 -1)" fill="#3c4242" stroke="#3c4242" stroke-width="1"/>
    <path id="Path_1224" data-name="Path 1224" d="M82.117,39H71.474a.691.691,0,0,0-.674.674V60.96a.691.691,0,0,0,.674.674H82.117a.691.691,0,0,0,.674-.674V39.629A.652.652,0,0,0,82.117,39Zm-.629,21.242H72.147V40.3h9.3V60.242Z" transform="translate(-37.291 -16.034)" fill="#3c4242" stroke="#3c4242" stroke-width="1"/>
  </g>
</svg>
