<svg id="ICO_improve" xmlns="http://www.w3.org/2000/svg" width="20" height="20" viewBox="0 0 20 20">
  <path id="Icon_metro-chart-dots" data-name="Icon metro-chart-dots" d="M5.071,19.428h17.5v2.5h-20v-20h2.5ZM8.2,18.178a1.875,1.875,0,1,1,0-3.75c.055,0,.11,0,.164.008l2.015-3.359a1.875,1.875,0,1,1,3.141,0l2.015,3.359q.082-.007.164-.008c.042,0,.083,0,.124,0L19.147,8.61a1.875,1.875,0,1,1,1.549.818c-.042,0-.083,0-.124,0l-3.327,5.823a1.875,1.875,0,1,1-3.119.033L12.11,11.92c-.054,0-.109.008-.164.008s-.11,0-.164-.008L9.766,15.28a1.875,1.875,0,0,1-1.571,2.9Z" transform="translate(-2.571 -1.928)" fill="#204194"/>
</svg>
