<svg id="ICO_results" xmlns="http://www.w3.org/2000/svg" width="16.778" height="20" viewBox="0 0 16.778 20">
  <g id="Path_291" data-name="Path 291" transform="translate(3.209 4.112)">
    <path id="Path_688" data-name="Path 688" d="M1164.181,1078.542h-5.429a.7.7,0,1,0,0,1.41h5.45a.694.694,0,0,0,.7-.685v-.02A.73.73,0,0,0,1164.181,1078.542Z" transform="translate(-1158.047 -1078.542)" fill="#3c4242"/>
  </g>
  <g id="Group_734" data-name="Group 734" transform="translate(6.64 10.779)">
    <path id="Path_689" data-name="Path 689" d="M1168.854,1086.4l-.014-.012a.73.73,0,0,0-1.009.08l-3.147,3.588-1.55-1.21a.705.705,0,0,0-.868,1.112l2.061,1.609a1.109,1.109,0,0,0,.51.149l.01,0a.7.7,0,0,0,.464-.234l3.593-4.1A.694.694,0,0,0,1168.854,1086.4Z" transform="translate(-1161.996 -1086.218)" fill="#3c4242"/>
  </g>
  <g id="Group_735" data-name="Group 735" transform="translate(3.361 6.583)">
    <path id="Path_690" data-name="Path 690" d="M1164.929,1094.8a6.708,6.708,0,1,1,6.709-6.708A6.716,6.716,0,0,1,1164.929,1094.8Zm0-11.679a4.971,4.971,0,1,0,4.972,4.972A4.976,4.976,0,0,0,1164.929,1083.124Z" transform="translate(-1158.221 -1081.387)" fill="#3c4242"/>
  </g>
  <g id="Group_736" data-name="Group 736">
    <path id="Path_691" data-name="Path 691" d="M1158.737,1088.42h-2.271a.694.694,0,0,1-.7-.684v-11.792a.7.7,0,0,1,.685-.7h6.983a.725.725,0,0,1,.5.208l2.073,2.073a.722.722,0,0,1,.208.5v3.524a5.836,5.836,0,0,1,1.407.673v-4.2a1.969,1.969,0,0,0-.623-1.514l-2.073-2.072a2.136,2.136,0,0,0-1.513-.622h-6.943a2.126,2.126,0,0,0-2.111,1.9v11.988a2.131,2.131,0,0,0,2.128,2.135h2.781A5.792,5.792,0,0,1,1158.737,1088.42Z" transform="translate(-1154.352 -1073.808)" fill="#3c4242"/>
  </g>
</svg>

