<svg data-name="01_IconResults" xmlns="http://www.w3.org/2000/svg" width="19.316" height="23.025"><g data-name="Path 291"><path data-name="Path 688" d="M10.757 4.734h-6.25a.812.812 0 100 1.623h6.274a.8.8 0 00.811-.788v-.023a.841.841 0 00-.835-.812z" fill="#204194"/></g><g data-name="Group 734"><path data-name="Path 689" d="M15.539 12.614l-.016-.014a.841.841 0 00-1.161.092l-3.623 4.131-1.784-1.393a.812.812 0 00-1 1.28l2.373 1.852a.785.785 0 00.48.162.772.772 0 00.107.009h.011a.805.805 0 00.534-.269l4.137-4.717a.8.8 0 00-.058-1.133z" fill="#204194"/></g><g data-name="Group 735"><path data-name="Path 690" d="M11.592 23.025a7.723 7.723 0 117.724-7.722 7.732 7.732 0 01-7.724 7.722zm0-13.446a5.723 5.723 0 105.724 5.724 5.729 5.729 0 00-5.724-5.724z" fill="#204194"/></g><g data-name="Group 736"><path data-name="Path 691" d="M5.048 16.822H2.434a.8.8 0 01-.811-.788V2.458a.8.8 0 01.789-.811h8.039a.835.835 0 01.573.239l2.386 2.386a.833.833 0 01.239.573v4.057a6.72 6.72 0 011.62.775V4.844a2.266 2.266 0 00-.717-1.743L12.166.716A2.459 2.459 0 0010.424 0H2.431a2.448 2.448 0 00-2.43 2.186v13.8a2.454 2.454 0 002.45 2.458h3.2a6.674 6.674 0 01-.603-1.622z" fill="#204194"/></g></svg>
