<svg id="ICO_study" xmlns="http://www.w3.org/2000/svg" width="18.85" height="20" viewBox="0 0 18.85 20">
  <g id="Path_291" data-name="Path 291" transform="translate(2.304 3.887)">
    <path id="Path_677" data-name="Path 677" d="M1098.944,1068.254h-3.763a.717.717,0,1,0,0,1.424h3.786a.755.755,0,0,0,.8-.693.054.054,0,0,0,0-.019A.792.792,0,0,0,1098.944,1068.254Z" transform="translate(-1094.377 -1068.254)" fill="#3c4242"/>
  </g>
  <g id="Path_291-2" data-name="Path 291" transform="translate(2.304 6.996)">
    <path id="Path_678" data-name="Path 678" d="M1098.944,1071.186h-3.763a.718.718,0,1,0,0,1.425h3.786a.755.755,0,0,0,.8-.693.055.055,0,0,0,0-.019A.793.793,0,0,0,1098.944,1071.186Z" transform="translate(-1094.377 -1071.186)" fill="#3c4242"/>
  </g>
  <g id="Path_291-3" data-name="Path 291" transform="translate(2.304 10.339)">
    <path id="Path_679" data-name="Path 679" d="M1098.944,1074.339h-3.763a.718.718,0,1,0,0,1.425h3.786a.755.755,0,0,0,.8-.693.06.06,0,0,0,0-.02A.793.793,0,0,0,1098.944,1074.339Z" transform="translate(-1094.377 -1074.339)" fill="#3c4242"/>
  </g>
  <g id="Path_291-4" data-name="Path 291" transform="translate(11.15 3.887)">
    <path id="Path_680" data-name="Path 680" d="M1108.06,1068.254H1104.3a.717.717,0,1,0,0,1.424h3.787a.755.755,0,0,0,.8-.693v-.019A.793.793,0,0,0,1108.06,1068.254Z" transform="translate(-1103.493 -1068.254)" fill="#3c4242"/>
  </g>
  <g id="Path_291-5" data-name="Path 291" transform="translate(11.15 6.996)">
    <path id="Path_681" data-name="Path 681" d="M1108.06,1071.186H1104.3a.718.718,0,1,0,0,1.425h3.787a.755.755,0,0,0,.8-.693v-.019A.794.794,0,0,0,1108.06,1071.186Z" transform="translate(-1103.493 -1071.186)" fill="#3c4242"/>
  </g>
  <g id="Path_291-6" data-name="Path 291" transform="translate(11.15 10.339)">
    <path id="Path_682" data-name="Path 682" d="M1108.06,1074.339H1104.3a.718.718,0,1,0,0,1.425h3.787a.755.755,0,0,0,.8-.693v-.02A.794.794,0,0,0,1108.06,1074.339Z" transform="translate(-1103.493 -1074.339)" fill="#3c4242"/>
  </g>
  <g id="Group_730" data-name="Group 730">
    <g id="Group_729" data-name="Group 729">
      <g id="Group_725" data-name="Group 725">
        <path id="Path_683" data-name="Path 683" d="M1101.937,1084.588h-8.307a1.806,1.806,0,0,1-1.7-1.894v-16.212a1.806,1.806,0,0,1,1.7-1.894h5.287a3.212,3.212,0,0,1,3.02,3.367Zm-8.307-18.424a.3.3,0,0,0-.284.318v16.212a.3.3,0,0,0,.284.317h6.894v-15.056a1.709,1.709,0,0,0-1.606-1.791Z" transform="translate(-1091.932 -1064.588)" fill="#3c4242"/>
      </g>
      <g id="Group_726" data-name="Group 726" transform="translate(8.845)">
        <path id="Path_684" data-name="Path 684" d="M1109.354,1084.588h-8.307v-16.633a3.212,3.212,0,0,1,3.02-3.367h5.288a1.807,1.807,0,0,1,1.7,1.894v16.212A1.807,1.807,0,0,1,1109.354,1084.588Zm-6.894-1.577h6.894a.3.3,0,0,0,.285-.317v-16.212a.3.3,0,0,0-.285-.318h-5.288a1.709,1.709,0,0,0-1.606,1.791Z" transform="translate(-1101.047 -1064.588)" fill="#3c4242"/>
      </g>
      <g id="Group_727" data-name="Group 727" transform="translate(8.093 15.588)">
        <path id="Path_685" data-name="Path 685" d="M1109.309,1083.35h-9.059l.9-1.145s1.327-1.682,2.086-2.628a1.537,1.537,0,0,1,1.22-.639h6.548v2.714A1.7,1.7,0,0,1,1109.309,1083.35Zm-6.141-1.414h6.141a.286.286,0,0,0,.285-.285v-1.3h-5.134a.411.411,0,0,0-.119.11C1104.006,1080.879,1103.561,1081.439,1103.168,1081.936Z" transform="translate(-1100.25 -1078.938)" fill="#3c4242"/>
      </g>
      <g id="Group_728" data-name="Group 728" transform="translate(0 15.588)">
        <path id="Path_686" data-name="Path 686" d="M1102.688,1083.35h-9.058a1.7,1.7,0,0,1-1.7-1.7v-2.714h6.548a1.566,1.566,0,0,1,1.219.639c.759.945,2.086,2.628,2.086,2.628Zm-9.342-3v1.3a.285.285,0,0,0,.284.285h6.141c-.393-.5-.84-1.058-1.173-1.476a.355.355,0,0,0-.123-.109Z" transform="translate(-1091.932 -1078.938)" fill="#3c4242"/>
      </g>
    </g>
  </g>
</svg>
