<svg xmlns="http://www.w3.org/2000/svg" width="20.316" height="15.036" viewBox="0 0 20.316 15.036">
  <g id="Group_1741" data-name="Group 1741" transform="translate(-102.3 -793.3)">
    <path id="Path_1865" data-name="Path 1865" d="M3.838,24.852,1.6,22.052A5.007,5.007,0,0,1,.5,18.923V13.169a1.669,1.669,0,0,1,3.338,0v4.312" transform="translate(102.5 782.5)" fill="none" stroke="#3c4242" stroke-linecap="round" stroke-linejoin="round" stroke-width="1.4"/>
    <path id="Path_1866" data-name="Path 1866" d="M8.507,24.4V20.915a5,5,0,0,0-.842-2.782l-1.272-1.9a1.557,1.557,0,0,0-2.728,1.5l1.5,2.5" transform="translate(102.838 782.948)" fill="none" stroke="#3c4242" stroke-linecap="round" stroke-linejoin="round" stroke-width="1.4"/>
    <path id="Path_1867" data-name="Path 1867" d="M20.5,24.852l2.241-2.8a5.007,5.007,0,0,0,1.1-3.129V13.169a1.669,1.669,0,0,0-3.338,0v4.312" transform="translate(98.078 782.5)" fill="none" stroke="#3c4242" stroke-linecap="round" stroke-linejoin="round" stroke-width="1.4"/>
    <path id="Path_1868" data-name="Path 1868" d="M16,24.4V20.915a5,5,0,0,1,.842-2.782l1.272-1.9a1.558,1.558,0,0,1,2.729,1.5l-1.505,2.5" transform="translate(97.571 782.948)" fill="none" stroke="#3c4242" stroke-linecap="round" stroke-linejoin="round" stroke-width="1.4"/>
  </g>
</svg>
