<svg data-name="00_IconStudyDesign" xmlns="http://www.w3.org/2000/svg" width="20" height="21.22"><g data-name="Path 291"><path data-name="Path 677" d="M7.291 4.124H3.299a.761.761 0 100 1.511h4.017a.8.8 0 00.853-.735.061.061 0 000-.02.84.84 0 00-.878-.756z" fill="#204194"/></g><g data-name="Path 291"><path data-name="Path 678" d="M7.291 7.422H3.299a.762.762 0 100 1.512h4.017a.8.8 0 00.853-.735.061.061 0 000-.02.842.842 0 00-.878-.757z" fill="#204194"/></g><g data-name="Path 291"><path data-name="Path 679" d="M7.291 10.969H3.299a.762.762 0 100 1.512h4.017a.8.8 0 00.853-.735.067.067 0 000-.021.842.842 0 00-.878-.756z" fill="#204194"/></g><g data-name="Path 291"><path data-name="Path 680" d="M16.675 4.124h-3.992a.761.761 0 100 1.511h4.018a.8.8 0 00.853-.735v-.02a.841.841 0 00-.879-.756z" fill="#204194"/></g><g data-name="Path 291"><path data-name="Path 681" d="M16.675 7.422h-3.992a.761.761 0 100 1.512h4.018a.8.8 0 00.853-.735v-.02a.843.843 0 00-.879-.757z" fill="#204194"/></g><g data-name="Path 291"><path data-name="Path 682" d="M16.675 10.969h-3.992a.761.761 0 100 1.512h4.018a.8.8 0 00.853-.735v-.021a.843.843 0 00-.879-.756z" fill="#204194"/></g><g data-name="Group 730"><g data-name="Group 729"><g data-name="Group 725"><path data-name="Path 683" d="M10.615 21.22H1.801a1.916 1.916 0 01-1.8-2.009v-17.2a1.916 1.916 0 011.8-2.009h5.61a3.408 3.408 0 013.2 3.572zM1.801 1.673a.321.321 0 00-.3.337v17.2a.321.321 0 00.3.337h7.314V3.572a1.813 1.813 0 00-1.7-1.9z" fill="#204194"/></g><g data-name="Group 726"><path data-name="Path 684" d="M18.198 21.22H9.384V3.573a3.407 3.407 0 013.2-3.572h5.61a1.917 1.917 0 011.8 2.009v17.2a1.917 1.917 0 01-1.796 2.01zm-7.314-1.673h7.314a.322.322 0 00.3-.337V2.01a.322.322 0 00-.3-.337h-5.61a1.813 1.813 0 00-1.7 1.9z" fill="#204194"/></g><g data-name="Group 727"><path data-name="Path 685" d="M18.198 21.22H8.587l.958-1.215s1.408-1.785 2.213-2.788a1.631 1.631 0 011.295-.678H20v2.879a1.8 1.8 0 01-1.802 1.802zm-6.515-1.5h6.515a.3.3 0 00.3-.3v-1.379h-5.447a.435.435 0 00-.126.117c-.353.443-.825 1.035-1.242 1.562z" fill="#204194"/></g><g data-name="Group 728"><path data-name="Path 686" d="M11.412 21.22H1.801a1.8 1.8 0 01-1.8-1.8v-2.879h6.947a1.662 1.662 0 011.294.678c.805 1 2.213 2.788 2.213 2.788zM1.5 18.039v1.379a.3.3 0 00.3.3h6.515c-.417-.527-.891-1.123-1.245-1.566a.376.376 0 00-.13-.116z" fill="#204194"/></g></g></g></svg>
